<svg id="Layer_1" data-name="Layer 1" xmlns="http://www.w3.org/2000/svg" xmlns:xlink="http://www.w3.org/1999/xlink" viewBox="0 0 683.14 87.42"><defs><style>.cls-1{fill:none;}.cls-2{clip-path:url(#clip-path);}.cls-3{fill:#fff;}</style><clipPath id="clip-path" transform="translate(-15)"><rect class="cls-1" width="698" height="114"></rect></clipPath></defs><g class="cls-2"><path class="cls-3" d="M18.65,37.25c2.5,4,6.72,8.64,13.23,8.87a16.8,16.8,0,0,0,6.65-.9c-5.77-2.14-12-5.44-13.6-11.52a12.59,12.59,0,0,1,.25-6.25c2.52-5.59,8.19-9,15.18-8.77a24.45,24.45,0,0,1,13.43,5.09c-5.31,4.26-12,7.62-16.58,13a12.17,12.17,0,0,0-1.34,1.94s-.59.42,0,.43c1.81.58,4.41-1,5.95.21C42.08,49.06,44.66,61.63,40,69c.32-.5,6.86,8.17,7.37,8.9,2.1,2.94,5.58,8,9.72,7.74,6.49-9.15,16.81-15.46,19.14-27.69a5.18,5.18,0,0,0-2.77-.09c-1.76.57-2.31,2.94-4,3.59-.93-.65-1-2.06-1.18-3.17s-.33-2.56-.4-3.82c-.38-6.59.34-13.26-.31-19.81,0-.69-.21-5.89-.68-6.1,3.8,1.59,6.74,4,11.11,4.74a82.11,82.11,0,0,1,7.72-11.73c1-1.18,2-2.2,3-3.38,2-2.26,3.71-4.7,5.73-7.24.8-1,1.91-2.28,2.92-3.54C99,5.46,101.66,2.94,99.85,0L99.7,0C89.48,10.68,66,5.22,51.13,3.57c-8.61-.95-18.46-1.14-25.22,1.78C19.81,8,15.88,13,15.12,20.61a32.58,32.58,0,0,0,1.31,11.93A21.74,21.74,0,0,0,18.65,37.25Z" transform="translate(-15)"></path><path class="cls-3" d="M175.15,57.52c-3.31,3.48-6.15,6.94-11.42,7.59a14.41,14.41,0,0,1-5.6-.38c.92-4.65-1.39-11,1.57-14.52,2.67,1.94.74,5.5.84,8.67,6.4-1.49,9.7-7.22,12.66-12.11,1.05-1.74,2.12-3.5,3.07-5.18A28.16,28.16,0,0,0,171,41.3c-1.78,0-3.31.18-4.67.23-3.51.18-6.53.18-7.31-2.67,12.36-1,21.12-10.18,21.79-23.23a33.71,33.71,0,0,0-3.3,1.83,28,28,0,0,1-12.38,3c-6,.06-11.34-2.41-15.72-4.51-3.49,3.82-6.81,8-10.06,11.83-1.41,1.66-2.54,3.26-4,4.83-.73.8-2.12,1.51-1.41,2.94,1.83.17,3-1.68,4.69-1.12.83.28,1.57,1.94,2,3a15.36,15.36,0,0,1,.71,3.72c.84,7.28-1.22,15.95-2.08,21.74-.36,2.39-4.55,1.43-5.66.29-.64-.69-1-2.33-1.45-3.78-1.83-6.69.35-15.37.29-22a45.11,45.11,0,0,0-.57-5.52c-1.17-8.14-2.43-15.78-10.91-16.12-.34,7.93-6.76,10.79-10.31,15.7-1,1.42-2.88,3.9-1.32,6,2.31.27,3-1.77,5-1.45.67.5.48,2,.44,3.19,0,1.32-.08,2.47-.88,2.77-1.45.54-4.24-1.14-5-1.89-4.16-4.34-1.81-15.25-5.52-20.94-1.28-1.95-3.87-3.67-5.52-3.06a8.76,8.76,0,0,0-.87.88c-1,1.63-1.05,3.67-1.87,5.39-1.51,3.15-4.36,5-7,7.22a19.73,19.73,0,0,0-3.93,4.23,44.6,44.6,0,0,0-2.43,4.71c2.75,1.9,4.53-2.27,6.63-2.21,1.62,0,1.38,1.6,1.32,3-.08,1.61.06,3.21.15,5.09.38,8.54.31,19.2-2.46,23.84,3.88,4.55,6,10.83,12.64,12.65,1.82-5.7,7.07-8,9.87-12.65-5.55-1.89-3.78-11.62-3-17.6,1.89,1.69,6.7.16,7.85,2.33a6.88,6.88,0,0,1,.28,2.33,28.83,28.83,0,0,1-2.75,12.81c4.34,4.14,6.5,10.44,12.65,12.78,3.09-4.68,6.22-9.31,10.21-13.09.46-.44,1.49-1.64,2.24-1.3s.76,1.18,1.16,1.68c1,1.21,2.08,2.31,3.15,3.44,2.14,2.29,4.07,4.83,4.49,8,6.44-3.59,15.89-4.22,21.31-.36.54.38.79,1,1.59,1C172.59,69.88,181.91,64,183.49,52,179.85,52.63,177.5,55.06,175.15,57.52Z" transform="translate(-15)"></path><path class="cls-3" d="M540,37.22c-1-.12-2.77-1-4.19-1-.93,0-2.08.39-3.22.48-4.28.35-11.31.48-12.25-3A4.64,4.64,0,0,1,522,29.35c2.37,1.24,4.41,3.53,7.34,4.1,2.1.4,2.16-.05,3.45-1.49,1.7-1.85,3.52-3.7,5.08-5.12,5.27-4.79,10.77-8.92,14.61-14.35.25-.34.42-.68.65-1a19.16,19.16,0,0,0,3.29-6.72c-3-1-5.73,1-7.53,2.16a29.29,29.29,0,0,1-3.28,1.89c-5.6,2.65-14.48,1-21.29-.29-8.41-1.64-15.89-4-24.45-5.35-4.33-.69-8.94-1.33-13.23-.78-5.79.74-9.86,3.5-11.9,7.53a16.06,16.06,0,0,0-1.47,3.78c-1.53,5.84-1.66,12.42,1.26,17.86.15.27.29.54.46.8a20.71,20.71,0,0,0,7.25,7,31.88,31.88,0,0,0,9.5,3.6c-.85-3.27-3.48-5.71-6-8-3.38-3-7.1-6.5-6.59-11.43a24.5,24.5,0,0,1,.78-4.5,2.5,2.5,0,0,1,.08-.25c2.87-2.58,6.95-3.52,10.72-3.48,5.32,0,11.26,2.31,15.29,4.49a18,18,0,0,1,3.69,2.48c-6.9,4.28-16.22,6.42-20.21,13.26,1.17,2.43,3.4.35,5.56.52.84,1.91,0,4.24,0,6.38-.09,4.91.77,10.53-.11,14.77-.23,1.11-.38,2.21-.67,3.15a15.1,15.1,0,0,1-2.05,3.82A12.52,12.52,0,0,1,490.44,66c-.31.27-.59.35-.67.75.17.73.94,1.24,1.37,1.76s.69.84,1.07,1.22a51.18,51.18,0,0,1,3.52,4.18c.68.86,1.35,1.82,2,2.72,2.47,3.44,5.06,7.07,7.45,10.77,2-1.58,3.27-3.78,4.91-5.69a29.36,29.36,0,0,0,2.63-3.29c.1-.17.29-.17.4-.3.83-1,1.67-2.1,2.37-3,.21-.27.46-.5.67-.75.84-1,1.45-2.14,2.24-3.11,2.44-3.06,5-6,7.4-9.1a3.52,3.52,0,0,0,1-2c0,.34-1.26.46-1.47.5a11.45,11.45,0,0,0-2.16.57,12.29,12.29,0,0,1-2.16.82c-3.49.82-2.65-5.06-2.62-7V55c0-2.81-.07-6.47,2.12-7.35,2.45,1,.9,6,2,7.68a2.26,2.26,0,0,0,2.2,1c.55-.11,1.54-1.43,2.13-2.12A67.57,67.57,0,0,0,532.51,46c.17-.27.25-.51.38-.72C534.88,42.2,537,39.16,540,37.22Z" transform="translate(-15)"></path><path class="cls-3" d="M462.44,14.33c0-.08,0-.17-.13-.15-1.19.22-2.08,1.41-2.7,2.15A19.67,19.67,0,0,1,455.7,20,12.73,12.73,0,0,1,447,22.2c-9.28-.61-17.59-5.66-27.63-6.38-10.83-.78-18.28,6.47-18.66,16.45-.23,5.9,2.47,11.12,6.9,13.7a17.24,17.24,0,0,0,6.85,1.79c1,.08,2.37.29,3-.32-4.51-.79-7.68-3-9-6.31a10,10,0,0,1,5.78-13c4.72-1.62,9.21.57,12.36,2.94-4.2,3.19-9.78,4.78-11.74,10.55.72,1.72,2.84.51,3.91,0,.31-.16.8,1.26.84,1.43.67,2.9.27,6.06.15,9A43.48,43.48,0,0,1,416,69.31c.34.52,1.22.9,1.72,1.4a23.67,23.67,0,0,1,3.24,5c1.46,2.54,3.1,5,5.81,6.19,6.3-4.62,11.67-10.35,14.51-19-1.83-1.13-3.36.31-4.54.9-.63-2.29-.29-4.72-.27-7.17,0-7.45-.25-14.48,0-21.41,3.67,1.24,4.8,4.64,9.4,5.08,4.62-9.72,13.35-14.65,16.73-25.85C462.56,14.39,462.56,14.31,462.44,14.33Z" transform="translate(-15)"></path><path class="cls-3" d="M402.74,63.92c-.45-4-1.39-7.83-2.15-11.67-2.39-11.75-5-23-7.79-34.33l-.27-.06a8.29,8.29,0,0,1-2.58,0c-4.58-.24-14.21-.59-14.32-.59-7.77-.11-15.8.8-19.35,6.84a16.94,16.94,0,0,0-1.11,14.65,19.28,19.28,0,0,0,6.88,8.43c.29.21,3.38,2.39,3.38,2.41-5.18,8.36-11.55,16-13.6,26.49,1.59-.87,3.1-1.89,4.76-2.61a32.23,32.23,0,0,1,4.85-1.17,27.83,27.83,0,0,1,5.54-.44c6.76.36,12.24,4,14.49,8.52a14.3,14.3,0,0,0,.35-3.93c0-.52.2-1,.2-1.53a22.1,22.1,0,0,0-1.62-7.83A12.69,12.69,0,0,0,373,59.49c-2.08-.74-5-.59-6.57-.67,2.28-7.07,9.63-7.56,16.77-7.43,1.72,5.18,2.31,10.7,4,16.26a36,36,0,0,0,5.23,10.81c.44.59,2.3,2.87,2.91,3a9.5,9.5,0,0,0,2.56-1.12,21.76,21.76,0,0,0,6.35-5.83,54.12,54.12,0,0,0,5.85-11C407.94,64.5,405.27,65.15,402.74,63.92ZM368.39,44.07a14.18,14.18,0,0,1-3-13.16c1.77-6.72,7.77-10.93,15-9.13C376.05,28.92,371.9,37.54,368.39,44.07Zm5,1.17a117.65,117.65,0,0,0,6.19-11.88,2.53,2.53,0,0,1,2,1.18c1.7,2.39.83,8.43,1.24,11.33C379.77,45.72,376.68,45.62,373.41,45.24Z" transform="translate(-15)"></path><path class="cls-3" d="M645.66,40.75a39.65,39.65,0,0,0-2.27-10.89c-4.87-13.18-17.61-16.12-28.59-18.21-4.8,6.19-15.47,9.82-19.48,17,3.84,1.77,8.52-1.76,12.26-2.55.74,0,2.12,0,2.18.84a19.19,19.19,0,0,0-14.08,9c-4.45,7.41-3.34,16.83.36,24.41,0,0,0,0,0,0a62,62,0,0,1-5.71,2.87c-3.4-4.86-4-12.14-8.15-15.77a11.81,11.81,0,0,0,3.8-3.26c.27-.35.69-.67.92-1,2.15-3.28,3-8.23,2.14-12.95-1.4-7.72-6.82-14.77-14.36-14.78a18.67,18.67,0,0,1-8.43,7.25c-1.89-4.08-3.57-8.15-8.55-7.33a1.28,1.28,0,0,0-.38.21,84.45,84.45,0,0,1-8.9,11.65c-.65.75-1.36,1.45-2,2.18-.84,1-1.68,1.91-2.56,2.81A13.59,13.59,0,0,0,541.58,35c1.53-.1,3.89-1.15,5,0a4.42,4.42,0,0,1,.73,1.17c.21.51.42,1.09.61,1.6a17.66,17.66,0,0,1,.59,2.41,26.64,26.64,0,0,1,.65,4.87c.32,7.32-1.34,15.21-3,20.63,3.88,5,5.84,12.08,12.16,13.57,4.46-4,7.64-8.87,11.1-13.36,1.17-1.51,2.14-3.25,3.69-4.49.21,8,2.38,17.46,9.81,19.18,2.94-5.5,10.7-12.47,14.53-17.57.14.23.27.46.42.68a36.25,36.25,0,0,0,9.4,10.11c.5.36,1.07.61,1.47.94.17.13.33.11.52.25a23.06,23.06,0,0,0,11,3.82,19.35,19.35,0,0,0,17.81-7.38A34.32,34.32,0,0,0,643.4,60.6s0-.08,0-.12c.4-1.33.86-2.69,1.19-4a41.5,41.5,0,0,0,.87-4.79,9.31,9.31,0,0,0,0-1C645.52,47.34,646.36,45,645.66,40.75ZM567,61.94c-1-.9-1.68-1.42-2-2.81-.48-2.5.88-5.48.94-7.83a10.78,10.78,0,0,1,5.86,8.42A12.25,12.25,0,0,1,567,61.94Zm-2.1-14.75c-1.09-6.46-.4-12.13-1.24-18,2.23-2.66,7-4.36,9.35-1.18a10.28,10.28,0,0,1,1.61,3.86C576.11,39,572.34,48,564.86,47.19Zm66.26,4.28c-.15,4.39-1.16,10.22-4,13.26-2.72,2.84-8.12,3-11.73.76-2.14-1.3-4.56-4.55-5.67-7.57a34,34,0,0,1-.78-19.23,15.9,15.9,0,0,1,3.39-6.82c3.19-3.58,9.42-4.78,12.89-.88.23.25.44.51.66.78C630.19,37,631.34,45.47,631.12,51.47Z" transform="translate(-15)"></path><path class="cls-3" d="M597.57,59.64h0S597.59,59.64,597.57,59.64Z" transform="translate(-15)"></path><path class="cls-3" d="M645,53a32.78,32.78,0,0,0,1.36,7.33,25.57,25.57,0,0,0,12,14.56c4.77,2.77,9.93,4,15.64,4.74a14.34,14.34,0,0,0,2.9.36,12.2,12.2,0,0,0,2.84-1.36c7.34-4,12.7-9.64,18.38-14.65a24.86,24.86,0,0,1-3.84-7.89,25.92,25.92,0,0,1-.69-8.79c.48-1.66.82-3.28,1.36-4.89s1.5-3,2-4.7c-7.22,3.1-15.3,6.82-22,10.05-2.33,1.13-4.62,2.27-7.1,3.55.84.56,2.14.81,3.34,1.51a14.47,14.47,0,0,1,4.2,3.8c1,1.48,2,3.46,1.56,5.35-.57,2.37-3.18,3.5-5.28,4.09a12.36,12.36,0,0,1-6.54-5C662.1,56.19,662.69,50,663.34,45,665,39.83,666.85,34.2,672,31c3.55,2.69,7.94,4.43,12.51,3,6.91-2.16,11.09-9.67,12.91-15.23-3,1.11-6,4.26-9.26,3.65a11.77,11.77,0,0,1-2.07-.82,7.9,7.9,0,0,1-2.84-2.14C680,15.78,675.77,14,671.11,15c-5,1-9.45,4-13.23,7.39a62.88,62.88,0,0,0-5.27,5.31,55,55,0,0,0-5,6c-1.72,2.62-2,5.71-2.37,8.77A48.54,48.54,0,0,0,645,53Z" transform="translate(-15)"></path><path class="cls-3" d="M356.74,51.91a4.77,4.77,0,0,0-1.39-1.17c-2.33,1.55-4.59,4-7,6.4s-5,4.72-7.77,5.6c-2.58.8-6.08.32-7.95-1.6.19-3.35-.9-7.91.54-10.49a2.69,2.69,0,0,1,1.28-1.11,2.08,2.08,0,0,1,1.94,1.24c.58,1.62-1.45,4-.63,5.83a14.65,14.65,0,0,0,8.37-5.81,30.22,30.22,0,0,0,5.15-11.42c-3.32-.83-6.89.19-9.75.4-3.8.28-7.89-.19-7-4.72a26.64,26.64,0,0,0,6.55-.56,14,14,0,0,0,8.82-6.17c2.58-3.88,3.51-8.48,5.1-13.12-.17,0-.17-.21-.4-.19a7.66,7.66,0,0,1-2.24,1c-4.31,1.61-9.64,3.36-14.76,3.13-5-.23-8.92-2.17-12.6-4.75-2.3,9.22-10.74,11.92-13.3,20.92,2.24,1,3.94-1.28,6.1-1.46,1.43,1.05,1.28,3.12,1.35,4.68.23,4.78,0,8.6-.13,12.81a87.12,87.12,0,0,0,.23,12.28c.48,4.28,1.47,7.68,3.7,10.33a16.11,16.11,0,0,0,6.57,4.67,15.22,15.22,0,0,1,1-2.26c2.31-3.36,7.23-2.85,11.41-1.18,2.16.86,3.92,2.41,5.5,3.11.58-4.2,2.62-7.66,4.36-10.7,1.58-2.75,4.77-8.73,5-9.47C355.63,55.82,356.63,53.8,356.74,51.91Z" transform="translate(-15)"></path><path class="cls-3" d="M312.38,61c-1.22.71-1.28,2.66-3,2.25-1.17-.28-1.64-2.08-2-2.73,0-.08-.24-.9-.34-1.14-1.74-4.32-2.22-9.23-5-12.27,3.65-.88,6-5.43,6.7-8.65a16.39,16.39,0,0,0,.14-3.5,19.37,19.37,0,0,0-.88-6.63c-1.53-4.89-4.64-10.28-11.08-11.79a6.31,6.31,0,0,0-3.17-.17,8.9,8.9,0,0,0-2.35,2.16c-1.37,1.62-1.91,2.88-3.67,3.94-.66.4-1.83.89-2.15.74a9.92,9.92,0,0,1-.92-2.08c-1.32-2.77-3.55-6-7.54-5.6-3.63,5.46-7.74,9.3-11.29,14-.71,1-1.39,1.93-2.08,2.93-.06.09-.06.09-.17,0-.67-.4-1.95-2.05-3.4-2.12-7.49,12.68-23.8,9.26-32,21.53,2.9.7,6.46.76,9.61,1.22,2.17.3,3,5.84,3,7.41a10.05,10.05,0,0,1-3.17,7.55c-6.73,5.69-12.61-3.46-14.42-9a40.43,40.43,0,0,1-1.65-6.63c-1-6.8-1.05-14,1.23-20.77,1.45-4.3,4-8.67,7.73-10.22a18.1,18.1,0,0,0,28.46-5c1.6-3.27,1.71-6,1.75-9.4a22.18,22.18,0,0,0-2.63,1.24,23.66,23.66,0,0,1-11,1.45c-4.93-.61-9.82-3.61-11.71-7.87-13.2,2.24-24.69,11.1-31.13,26a50.33,50.33,0,0,0-4,14c-1.51,12.49,1.68,26,11.54,34.42a37.06,37.06,0,0,0,8.61,5.26,51.6,51.6,0,0,0,18.39,4.11c3.63.21,6.45,0,9-1.92,4.36-3.2,7.59-8.8,11.42-13.35A24.55,24.55,0,0,1,262,67.46c1.64-1.36,5.12-2.56,6.63-.36.4.59.46,1.31.84,1.91a14,14,0,0,1,1.16,2.84c1.24,3.29,2.52,7,7,6.88,5.12-3.94,12.09-10.26,13.33-17.92-1.6-2.62-3.55,1.28-5.12.8-.74-1-.82-2-1-3.57-.13-1-.55-3.33.61-4.07.5-.32,1.21,0,1.86.17,4.41,1.36,5.27,6.29,5.91,11,.86,6.15.9,13.43,8.12,14.92,2.52-2.77,5.25-5.29,7.72-8.16s4.83-6.21,5.55-10.95C313.62,61,313.12,60.62,312.38,61Zm-42.72-7.53a60.82,60.82,0,0,1-.8,6.76c-.19,1.11-.44,2.2-.71,3.29a18.7,18.7,0,0,0-2.27-1.47,7.35,7.35,0,0,1-2.08-1.8,36.67,36.67,0,0,1-2.58-4,23.17,23.17,0,0,1-2-13.18A16.87,16.87,0,0,1,260,40a7.74,7.74,0,0,1,1.31-2.67,5.19,5.19,0,0,1,.71-.61,4.34,4.34,0,0,1,1.36-.82c.46-.16.91-.29,1.37-.41a20.32,20.32,0,0,1,2.94-.64l.33,0c.19,0,.65-.12.74.11a4.28,4.28,0,0,1,.1.73c0,.27.07.53.13.8.17,1.09.31,2.18.42,3.29.25,2.27.38,4.54.44,6.84S269.81,51.2,269.66,53.51ZM293.49,40c-.82,3-3.59,7.53-8,6.31-.59-.17-.57-2.28-.63-2.71-.42-3.52-.9-7.3-.4-10.82A13,13,0,0,1,285.57,29c.19-.42,1.75-3.25,2.33-3.05a8.27,8.27,0,0,1,3.17,1.5C293.36,29.52,294.66,35.69,293.49,40Z" transform="translate(-15)"></path></g></svg>